<?xml version="1.0" standalone="no"?>
<!DOCTYPE svg PUBLIC "-//W3C//DTD SVG 20010904//EN"
 "http://www.w3.org/TR/2001/REC-SVG-20010904/DTD/svg10.dtd">
<svg version="1.0" xmlns="http://www.w3.org/2000/svg"
 width="512.000000pt" height="512.000000pt" viewBox="0 0 512.000000 512.000000"
 preserveAspectRatio="xMidYMid meet">
<metadata>
Created by potrace 1.11, written by Peter Selinger 2001-2013
</metadata>
<g transform="translate(0.000000,512.000000) scale(0.100000,-0.100000)"
fill="#000000" stroke="none">
<path d="M2445 4914 c-531 -55 -952 -309 -1233 -744 -287 -443 -324 -1037 -95
-1530 97 -209 260 -414 445 -562 49 -39 88 -75 88 -80 0 -5 4 -6 10 -3 5 3 8
0 5 -7 -2 -7 84 -204 193 -438 l198 -425 42 -3 c23 -2 42 0 42 4 0 9 -360 786
-370 799 -5 6 35 -11 88 -37 98 -48 283 -113 350 -124 l37 -6 49 -306 c27
-169 51 -313 54 -319 2 -8 21 -13 43 -13 36 0 39 2 34 22 -13 62 -96 590 -93
593 2 2 49 -1 103 -6 91 -10 235 -6 326 8 l35 5 -48 -299 c-26 -164 -48 -304
-48 -310 0 -8 15 -13 40 -13 22 0 40 4 40 8 0 17 99 624 102 626 2 1 41 13 88
25 101 27 241 81 328 126 34 18 62 31 62 29 0 -2 -85 -183 -190 -402 -105
-220 -190 -402 -190 -406 0 -4 19 -6 42 -4 l42 3 216 451 215 451 76 61 c183
147 349 364 445 582 24 55 44 102 44 105 0 3 -88 4 -195 3 l-196 -3 -37 -85
c-88 -203 -190 -352 -351 -510 -59 -58 -144 -132 -190 -164 -82 -58 -340 -196
-367 -196 -10 0 -5 14 15 48 103 167 196 535 229 914 l9 97 -64 65 c-201 206
-199 517 3 723 l64 66 -10 111 c-37 398 -126 759 -231 929 -20 33 -25 47 -15
47 28 0 286 -138 366 -196 138 -99 291 -253 383 -385 l16 -22 63 57 c34 32 88
71 118 88 30 17 57 33 59 35 8 6 -80 91 -159 156 -217 176 -461 288 -732 337
-109 19 -314 32 -393 24z m-64 -141 c-156 -253 -252 -809 -252 -1453 0 -644
96 -1200 252 -1452 20 -34 25 -48 15 -48 -28 0 -286 138 -366 196 -425 306
-670 782 -670 1304 0 522 245 998 670 1304 80 58 338 196 366 196 10 0 5 -14
-15 -47z"/>
</g>
</svg>
