<svg height="512pt" viewBox="0 0 512 512" width="512pt" xmlns="http://www.w3.org/2000/svg"><path d="m421 407c0-15.34375 3.371094-31.238281 8.714844-46l-17.152344-30-14.335938 30c-4.402343 14.488281-7.226562 30.402344-7.226562 46v30h30zm0 0" fill="#d2c5c2"/><path d="m301 407c0-15.597656-2.824219-31.511719-7.226562-46l-14.335938-30-17.152344 30c5.34375 14.761719 8.714844 30.65625 8.714844 46v30h30zm0 0" fill="#dfd7d5"/><path d="m421 437v30c0 24.898438-20.097656 45-45 45h-60c-24.902344 0-45-20.101562-45-45v-30zm0 0" fill="#725d57"/><path d="m211 166c0-41.351562-33.648438-75-75-75-36.269531 0-66.585938 25.890625-73.5 60.152344-.507812-.011719-.984375-.152344-1.5-.152344-33.089844 0-61 26.910156-61 60s27.910156 60 61 60h180s-30-99.863281-30-105zm0 0" fill="#ede9e8"/><path d="m421 437v30c0 24.898438-20.097656 45-45 45h-30v-75zm0 0" fill="#53433f"/><path d="m451 437c0 8.398438-6.597656 15-15 15h-180c-8.402344 0-15-6.601562-15-15 0-8.402344 6.597656-15 15-15h180c8.402344 0 15 6.597656 15 15zm0 0" fill="#ff7816"/><path d="m451 437c0 8.398438-6.597656 15-15 15h-90v-30h90c8.402344 0 15 6.597656 15 15zm0 0" fill="#ff4b00"/><path d="m181 166c0 46.773438 23.90625 87.832031 47.035156 127.542969 12.238282 21.019531 26.015625 44.710937 34.25 67.457031h31.511719l52.203125-361c-90.980469 0-165 75.019531-165 166zm0 0" fill="#ff4b00"/><path d="m346 0 52.199219 361h31.515625c8.234375-22.746094 22.011718-46.4375 34.25-67.457031 23.128906-39.710938 48.035156-80.769531 48.035156-127.542969 0-90.980469-75.019531-166-166-166zm0 0" fill="#dd3400"/><path d="m421 166c0 81.597656-17.097656 165.300781-22.800781 195h-104.398438c-4.199219-22.199219-22.800781-113.101562-22.800781-195 0-80.101562 26.398438-166 75-166s75 85.898438 75 166zm0 0" fill="#ff7816"/><path d="m398.199219 361h-52.199219v-361c48.601562 0 75 85.898438 75 166 0 81.597656-17.097656 165.300781-22.800781 195zm0 0" fill="#ff4b00"/></svg>